# xmcd
#
# Track frame offsets: 
#        150
#        25328
#        48168
#        71078
#        98770
#        127158
#        150668
#        173855
#
# Disc length: 2671 seconds
#
# Revision: 0
# Processed by: cddbd v1.5.2PL0 Copyright (c) Steve Scherf et al.
# Submitted via: ExactAudioCopy v0.99pb5
#
DISCID=670a6d08
DTITLE=Rush  - Power Windows - Warner Bros. 13482  (SHM)  
DYEAR=1900
DGENRE=
TTITLE0=The Big Money
TTITLE1=Grand Designs
TTITLE2=Manhattan Project
TTITLE3=Marathon
TTITLE4=Territories
TTITLE5=Middletown Dreams
TTITLE6=Emotion Detector
TTITLE7=Mystic Rythms
EXTD=
EXTT0=
EXTT1=
EXTT2=
EXTT3=
EXTT4=
EXTT5=
EXTT6=
EXTT7=
PLAYORDER=
